<?xml version="1.0" standalone="no"?>
<!DOCTYPE svg PUBLIC "-//W3C//DTD SVG 20010904//EN"
 "http://www.w3.org/TR/2001/REC-SVG-20010904/DTD/svg10.dtd">
<svg version="1.0" xmlns="http://www.w3.org/2000/svg"
 width="1024.000000pt" height="1024.000000pt" viewBox="0 0 1024.000000 1024.000000"
 preserveAspectRatio="xMidYMid meet">
<metadata>
Created by potrace 1.14, written by Peter Selinger 2001-2017
</metadata>
<g transform="translate(0.000000,1024.000000) scale(0.100000,-0.100000)"
fill="#000000" stroke="none">
<path d="M2100 10229 c-288 -24 -564 -101 -825 -229 -621 -306 -1075 -886
-1219 -1560 -53 -251 -51 -90 -51 -3340 0 -2870 1 -3031 18 -3139 81 -512 297
-943 647 -1291 353 -352 768 -560 1285 -647 105 -17 248 -18 3160 -18 3274 0
3101 -3 3343 51 591 132 1108 499 1439 1022 178 281 302 657 333 1002 8 89 10
984 8 3120 l-3 2995 -22 120 c-12 66 -33 163 -47 215 -212 814 -852 1445
-1667 1644 -271 66 1 60 -3309 62 -1647 1 -3038 -2 -3090 -7z m1812 -3360
c580 -106 1030 -566 1133 -1158 20 -112 19 -342 -1 -462 -32 -189 -111 -388
-219 -548 -283 -422 -789 -667 -1286 -621 -332 31 -613 157 -856 385 -85 79
-93 84 -98 63 -3 -13 -61 -342 -130 -733 -68 -390 -132 -729 -140 -752 -18
-48 -89 -117 -143 -140 -55 -23 -151 -20 -206 6 -52 26 -111 87 -134 140 -8
20 -15 63 -14 96 0 71 442 2579 476 2711 121 452 483 828 936 972 226 72 442
85 682 41z m3579 5 c515 -88 937 -453 1103 -956 90 -272 92 -582 4 -857 -158
-497 -566 -859 -1087 -962 -133 -26 -362 -28 -494 -5 -168 31 -351 100 -492
186 -90 55 -244 179 -294 238 l-39 45 -6 -29 c-3 -16 -62 -351 -131 -744 -70
-394 -134 -733 -144 -755 -20 -46 -88 -111 -137 -131 -50 -21 -150 -17 -204 7
-92 41 -150 129 -150 227 0 88 456 2660 492 2772 159 500 583 869 1108 965
107 19 355 19 471 -1z"/>
<path d="M3480 6355 c-324 -67 -581 -302 -675 -620 -36 -121 -45 -304 -21
-426 32 -157 109 -306 220 -426 116 -125 268 -216 431 -259 107 -29 352 -27
458 4 240 69 445 238 556 459 103 206 119 475 42 694 -44 124 -107 224 -201
319 -96 98 -170 149 -283 198 -153 66 -368 89 -527 57z"/>
<path d="M7075 6356 c-371 -86 -637 -365 -696 -730 -16 -104 -7 -290 20 -384
55 -190 192 -380 354 -491 64 -44 178 -97 262 -122 109 -33 323 -38 438 -10
168 40 293 107 411 220 121 117 210 267 252 426 29 107 27 352 -4 458 -69 241
-237 444 -459 556 -118 59 -222 83 -378 87 -96 2 -159 -1 -200 -10z"/>
</g>
</svg>
