{
	"asset": {
		"generator": "Khronos glTF Blender I/O v1.7.33",
		"version": "2.0"
	},
	"scene": 0,
	"scenes": [
		{
			"name": "Scene",
			"nodes": [0]
		}
	],
	"nodes": [
		{
			"mesh": 0,
			"name": "Violin"
		}
	],
	"materials": [
		{
			"doubleSided": true,
			"name": "Wood",
			"pbrMetallicRoughness": {
				"baseColorFactor": [0.2, 0.1, 0.05, 1],
				"metallicFactor": 0,
				"roughnessFactor": 0.2
			}
		},
		{
			"doubleSided": true,
			"name": "Hole",
			"pbrMetallicRoughness": {}
		},
		{
			"doubleSided": true,
			"name": "Wire",
			"pbrMetallicRoughness": {}
		},
		{
			"doubleSided": true,
			"name": "Black",
			"pbrMetallicRoughness": {}
		}
	],
	"meshes": [
		{
			"name": "Cube.006",
			"primitives": [
				{
					"attributes": {
						"POSITION": 0,
						"NORMAL": 1
					},
					"indices": 2,
					"material": 0
				},
				{
					"attributes": {
						"POSITION": 3,
						"NORMAL": 4
					},
					"indices": 5,
					"material": 1
				},
				{
					"attributes": {
						"POSITION": 6,
						"NORMAL": 7
					},
					"indices": 8,
					"material": 2
				},
				{
					"attributes": {
						"POSITION": 9,
						"NORMAL": 10
					},
					"indices": 11,
					"material": 3
				}
			]
		}
	],
	"accessors": [
		{
			"bufferView": 0,
			"componentType": 5126,
			"count": 998,
			"max": [0.4197975695133209, 0.1937544345855713, 1.4536887407302856],
			"min": [-0.4197806417942047, -0.19707295298576355, -0.8847017288208008],
			"type": "VEC3"
		},
		{
			"bufferView": 1,
			"componentType": 5126,
			"count": 998,
			"type": "VEC3"
		},
		{
			"bufferView": 2,
			"componentType": 5123,
			"count": 1314,
			"type": "SCALAR"
		},
		{
			"bufferView": 3,
			"componentType": 5126,
			"count": 216,
			"max": [0.27963581681251526, 0.05455143377184868, -0.07344429194927216],
			"min": [-0.27961888909339905, 0.02871870994567871, -0.3901478052139282],
			"type": "VEC3"
		},
		{
			"bufferView": 4,
			"componentType": 5126,
			"count": 216,
			"type": "VEC3"
		},
		{
			"bufferView": 5,
			"componentType": 5123,
			"count": 312,
			"type": "SCALAR"
		},
		{
			"bufferView": 6,
			"componentType": 5126,
			"count": 504,
			"max": [0.07497869431972504, 0.19854767620563507, 1.3446300029754639],
			"min": [-0.07496175915002823, -0.130788192152977, -0.8805655837059021],
			"type": "VEC3"
		},
		{
			"bufferView": 7,
			"componentType": 5126,
			"count": 504,
			"type": "VEC3"
		},
		{
			"bufferView": 8,
			"componentType": 5123,
			"count": 744,
			"type": "SCALAR"
		},
		{
			"bufferView": 9,
			"componentType": 5126,
			"count": 1018,
			"max": [0.19784969091415405, 0.19452150166034698, 1.3432912826538086],
			"min": [-0.20071953535079956, -0.1408323496580124, -0.889371931552887],
			"type": "VEC3"
		},
		{
			"bufferView": 10,
			"componentType": 5126,
			"count": 1018,
			"type": "VEC3"
		},
		{
			"bufferView": 11,
			"componentType": 5123,
			"count": 1452,
			"type": "SCALAR"
		}
	],
	"bufferViews": [
		{
			"buffer": 0,
			"byteLength": 11976,
			"byteOffset": 0
		},
		{
			"buffer": 0,
			"byteLength": 11976,
			"byteOffset": 11976
		},
		{
			"buffer": 0,
			"byteLength": 2628,
			"byteOffset": 23952
		},
		{
			"buffer": 0,
			"byteLength": 2592,
			"byteOffset": 26580
		},
		{
			"buffer": 0,
			"byteLength": 2592,
			"byteOffset": 29172
		},
		{
			"buffer": 0,
			"byteLength": 624,
			"byteOffset": 31764
		},
		{
			"buffer": 0,
			"byteLength": 6048,
			"byteOffset": 32388
		},
		{
			"buffer": 0,
			"byteLength": 6048,
			"byteOffset": 38436
		},
		{
			"buffer": 0,
			"byteLength": 1488,
			"byteOffset": 44484
		},
		{
			"buffer": 0,
			"byteLength": 12216,
			"byteOffset": 45972
		},
		{
			"buffer": 0,
			"byteLength": 12216,
			"byteOffset": 58188
		},
		{
			"buffer": 0,
			"byteLength": 2904,
			"byteOffset": 70404
		}
	],
	"buffers": [
		{
			"uri": "Violin_data.bin",
			"byteLength": 73308
		}
	]
}
